# Blender v2.90.1 OBJ File: 'noir props.blend'
# www.blender.org
mtllib testlevel.mtl
o Test_level_Cube.016
v -5.000000 0.000000 -7.000000
v -5.000000 30.000000 -7.000000
v -5.000000 0.000000 -17.000000
v -5.000000 30.000000 -17.000000
v 5.000000 0.000000 -7.000000
v 5.000000 30.000000 -7.000000
v 5.000000 0.000000 -17.000000
v 5.000000 30.000000 -17.000000
v -33.000000 0.000000 2.000000
v 32.000000 0.000000 2.000000
v -33.000000 0.000000 -2.000001
v 32.000000 0.000000 -2.000001
v -33.000000 0.500000 -2.000001
v 32.000000 0.500000 -2.000001
v -33.000000 0.500000 -4.000000
v 32.000000 0.500000 -4.000000
v -33.000000 -0.500000 2.499999
v 32.000000 -0.500000 2.499999
v -33.000000 -1.600000 3.000000
v 32.000000 -1.600000 3.000000
v -33.000000 -2.500000 3.000000
v 32.000000 -2.500000 3.000000
v -33.000000 -3.000000 2.499999
v 32.000000 -3.000000 2.499999
v -33.000000 -3.000000 2.000000
v 32.000000 -3.000000 2.000000
v -33.000000 -2.500000 1.000000
v 32.000000 -2.500000 1.000000
v -33.000000 -20.000000 -0.000001
v 32.000000 -20.000000 -0.000001
v -33.000000 0.500000 -24.000002
v 32.000000 0.500000 -24.000002
v -15.000001 0.000000 -6.000001
v -15.000001 24.999998 -6.000001
v -15.000001 0.000000 -15.000002
v -15.000001 24.999998 -15.000002
v -6.000000 0.000000 -6.000001
v -6.000000 24.999998 -6.000001
v -6.000000 0.000000 -15.000002
v -6.000000 24.999998 -15.000002
v 6.000000 0.000000 -6.000001
v 6.000000 24.999998 -6.000001
v 6.000000 0.000000 -15.000002
v 6.000000 24.999998 -15.000002
v 15.000001 0.000000 -6.000001
v 15.000001 24.999998 -6.000001
v 15.000001 0.000000 -15.000002
v 15.000001 24.999998 -15.000002
v -33.000000 -20.000000 3.999999
v -33.000000 20.000000 3.999999
v -33.000000 -20.000000 -4.000000
v -33.000000 20.000000 -4.000000
v -25.000000 -20.000000 3.999999
v -25.000000 20.000000 3.999999
v -25.000000 -20.000000 -4.000000
v -25.000000 20.000000 -4.000000
v 25.000000 -20.000000 3.999999
v 25.000000 20.000000 3.999999
v 25.000000 -20.000000 -4.000000
v 25.000000 20.000000 -4.000000
v 33.000000 -20.000000 3.999999
v 33.000000 20.000000 3.999999
v 33.000000 -20.000000 -4.000000
v 33.000000 20.000000 -4.000000
v 16.000000 0.000000 -5.000001
v 16.000000 20.000000 -5.000001
v 16.000000 0.000000 -13.000001
v 16.000000 20.000000 -13.000001
v 24.000000 0.000000 -5.000001
v 24.000000 20.000000 -5.000001
v 24.000000 0.000000 -13.000001
v 24.000000 20.000000 -13.000001
v -24.000000 0.000000 -5.000001
v -24.000000 20.000000 -5.000001
v -24.000000 0.000000 -13.000001
v -24.000000 20.000000 -13.000001
v -16.000000 0.000000 -5.000001
v -16.000000 20.000000 -5.000001
v -16.000000 0.000000 -13.000001
v -16.000000 20.000000 -13.000001
v -23.874006 -4.999998 -13.875676
v -23.874006 35.000000 -13.875676
v -25.715538 -4.999998 -23.704653
v -25.715538 35.000000 -23.704653
v -0.284464 -4.999998 -18.295353
v -0.284464 35.000000 -18.295353
v -2.125995 -4.999998 -28.124327
v -2.125995 35.000000 -28.124327
v -36.078918 -2.000000 -0.653214
v -36.078918 18.000000 -0.653214
v -39.360077 -2.000000 -2.941013
v -39.360077 18.000000 -2.941013
v -24.639927 -2.000000 -17.058987
v -24.639927 18.000000 -17.058987
v -27.921082 -2.000000 -19.346786
v -27.921082 18.000000 -19.346786
v 0.284463 -4.999998 -18.295361
v 0.284463 35.000000 -18.295361
v 2.126001 -4.999998 -28.124334
v 2.126001 35.000000 -28.124334
v 23.874001 -4.999998 -13.875669
v 23.874001 35.000000 -13.875669
v 25.715542 -4.999998 -23.704643
v 25.715542 35.000000 -23.704643
v 24.639927 -2.000000 -17.058987
v 24.639927 18.000000 -17.058987
v 27.921082 -2.000000 -19.346786
v 27.921082 18.000000 -19.346786
v 36.078918 -2.000000 -0.653214
v 36.078918 18.000000 -0.653214
v 39.360077 -2.000000 -2.941013
v 39.360077 18.000000 -2.941013
v 22.053982 -3.000000 -26.895786
v 22.053982 26.999998 -26.895786
v 24.625132 -3.000000 -29.959967
v 24.625132 26.999998 -29.959967
v 37.374870 -3.000000 -14.040036
v 37.374870 26.999998 -14.040036
v 39.946022 -3.000000 -17.104214
v 39.946022 26.999998 -17.104214
v -37.374870 -3.000000 -14.040036
v -37.374870 26.999998 -14.040036
v -39.946022 -3.000000 -17.104214
v -39.946022 26.999998 -17.104214
v -22.053982 -3.000000 -26.895786
v -22.053982 26.999998 -26.895786
v -24.625132 -3.000000 -29.959967
v -24.625132 26.999998 -29.959967
v -15.000000 12.999999 -29.000004
v -15.000000 43.000000 -29.000004
v -15.000000 12.999999 -39.000004
v -15.000000 43.000000 -39.000004
v 15.000000 12.999999 -29.000004
v 15.000000 43.000000 -29.000004
v 15.000000 12.999999 -39.000004
v 15.000000 43.000000 -39.000004
v -33.000000 0.000000 2.000000
v 32.000000 0.000000 2.000000
v -33.000000 0.000000 -2.000001
v 32.000000 0.000000 -2.000001
v -33.000000 0.500000 -2.000001
v 32.000000 0.500000 -2.000001
v -33.000000 0.500000 -4.000000
v 32.000000 0.500000 -4.000000
v -33.000000 -0.500000 2.499999
v 32.000000 -0.500000 2.499999
v -33.000000 -1.600000 3.000000
v 32.000000 -1.600000 3.000000
v -33.000000 -2.500000 3.000000
v 32.000000 -2.500000 3.000000
v -33.000000 -3.000000 2.499999
v 32.000000 -3.000000 2.499999
v -33.000000 -3.000000 2.000000
v 32.000000 -3.000000 2.000000
v -33.000000 -2.500000 1.000000
v 32.000000 -2.500000 1.000000
v -33.000000 -20.000000 -0.000001
v 32.000000 -20.000000 -0.000001
v -33.000000 0.500000 -24.000002
v 32.000000 0.500000 -24.000002
vt 0.375000 0.000000
vt 0.625000 0.000000
vt 0.625000 0.250000
vt 0.375000 0.250000
vt 0.625000 0.500000
vt 0.375000 0.500000
vt 0.625000 0.750000
vt 0.375000 0.750000
vt 0.625000 1.000000
vt 0.375000 1.000000
vt 0.125000 0.500000
vt 0.125000 0.750000
vt 0.875000 0.500000
vt 0.875000 0.750000
vt 0.375000 0.000000
vt 0.625000 0.000000
vt 0.625000 0.250000
vt 0.375000 0.250000
vt 0.625000 0.500000
vt 0.375000 0.500000
vt 0.625000 0.750000
vt 0.375000 0.750000
vt 0.625000 1.000000
vt 0.375000 1.000000
vt 0.125000 0.500000
vt 0.125000 0.750000
vt 0.875000 0.500000
vt 0.875000 0.750000
vt 0.375000 0.000000
vt 0.625000 0.000000
vt 0.625000 0.250000
vt 0.375000 0.250000
vt 0.625000 0.500000
vt 0.375000 0.500000
vt 0.625000 0.750000
vt 0.375000 0.750000
vt 0.625000 1.000000
vt 0.375000 1.000000
vt 0.125000 0.500000
vt 0.125000 0.750000
vt 0.875000 0.500000
vt 0.875000 0.750000
vt 0.375000 0.000000
vt 0.625000 0.000000
vt 0.625000 0.250000
vt 0.375000 0.250000
vt 0.625000 0.500000
vt 0.375000 0.500000
vt 0.625000 0.750000
vt 0.375000 0.750000
vt 0.625000 1.000000
vt 0.375000 1.000000
vt 0.125000 0.500000
vt 0.125000 0.750000
vt 0.875000 0.500000
vt 0.875000 0.750000
vt 0.375000 0.000000
vt 0.625000 0.000000
vt 0.625000 0.250000
vt 0.375000 0.250000
vt 0.625000 0.500000
vt 0.375000 0.500000
vt 0.625000 0.750000
vt 0.375000 0.750000
vt 0.625000 1.000000
vt 0.375000 1.000000
vt 0.125000 0.500000
vt 0.125000 0.750000
vt 0.875000 0.500000
vt 0.875000 0.750000
vt 0.375000 0.000000
vt 0.625000 0.000000
vt 0.625000 0.250000
vt 0.375000 0.250000
vt 0.625000 0.500000
vt 0.375000 0.500000
vt 0.625000 0.750000
vt 0.375000 0.750000
vt 0.625000 1.000000
vt 0.375000 1.000000
vt 0.125000 0.500000
vt 0.125000 0.750000
vt 0.875000 0.500000
vt 0.875000 0.750000
vt 0.375000 0.000000
vt 0.625000 0.000000
vt 0.625000 0.250000
vt 0.375000 0.250000
vt 0.625000 0.500000
vt 0.375000 0.500000
vt 0.625000 0.750000
vt 0.375000 0.750000
vt 0.625000 1.000000
vt 0.375000 1.000000
vt 0.125000 0.500000
vt 0.125000 0.750000
vt 0.875000 0.500000
vt 0.875000 0.750000
vt 0.375000 0.000000
vt 0.625000 0.000000
vt 0.625000 0.250000
vt 0.375000 0.250000
vt 0.625000 0.500000
vt 0.375000 0.500000
vt 0.625000 0.750000
vt 0.375000 0.750000
vt 0.625000 1.000000
vt 0.375000 1.000000
vt 0.125000 0.500000
vt 0.125000 0.750000
vt 0.875000 0.500000
vt 0.875000 0.750000
vt 0.375000 0.000000
vt 0.625000 0.000000
vt 0.625000 0.250000
vt 0.375000 0.250000
vt 0.625000 0.500000
vt 0.375000 0.500000
vt 0.625000 0.750000
vt 0.375000 0.750000
vt 0.625000 1.000000
vt 0.375000 1.000000
vt 0.125000 0.500000
vt 0.125000 0.750000
vt 0.875000 0.500000
vt 0.875000 0.750000
vt 0.375000 0.000000
vt 0.625000 0.000000
vt 0.625000 0.250000
vt 0.375000 0.250000
vt 0.625000 0.500000
vt 0.375000 0.500000
vt 0.625000 0.750000
vt 0.375000 0.750000
vt 0.625000 1.000000
vt 0.375000 1.000000
vt 0.125000 0.500000
vt 0.125000 0.750000
vt 0.875000 0.500000
vt 0.875000 0.750000
vt 0.375000 0.000000
vt 0.625000 0.000000
vt 0.625000 0.250000
vt 0.375000 0.250000
vt 0.625000 0.500000
vt 0.375000 0.500000
vt 0.625000 0.750000
vt 0.375000 0.750000
vt 0.625000 1.000000
vt 0.375000 1.000000
vt 0.125000 0.500000
vt 0.125000 0.750000
vt 0.875000 0.500000
vt 0.875000 0.750000
vt 0.375000 0.000000
vt 0.625000 0.000000
vt 0.625000 0.250000
vt 0.375000 0.250000
vt 0.625000 0.500000
vt 0.375000 0.500000
vt 0.625000 0.750000
vt 0.375000 0.750000
vt 0.625000 1.000000
vt 0.375000 1.000000
vt 0.125000 0.500000
vt 0.125000 0.750000
vt 0.875000 0.500000
vt 0.875000 0.750000
vt 0.375000 0.000000
vt 0.625000 0.000000
vt 0.625000 0.250000
vt 0.375000 0.250000
vt 0.625000 0.500000
vt 0.375000 0.500000
vt 0.625000 0.750000
vt 0.375000 0.750000
vt 0.625000 1.000000
vt 0.375000 1.000000
vt 0.125000 0.500000
vt 0.125000 0.750000
vt 0.875000 0.500000
vt 0.875000 0.750000
vt 0.375000 0.000000
vt 0.625000 0.000000
vt 0.625000 0.250000
vt 0.375000 0.250000
vt 0.625000 0.500000
vt 0.375000 0.500000
vt 0.625000 0.750000
vt 0.375000 0.750000
vt 0.625000 1.000000
vt 0.375000 1.000000
vt 0.125000 0.500000
vt 0.125000 0.750000
vt 0.875000 0.500000
vt 0.875000 0.750000
vt 0.000000 0.000000
vt 1.000000 0.000000
vt 1.000000 1.000000
vt 0.000000 1.000000
vt 1.000000 1.000000
vt 0.000000 1.000000
vt 1.000000 1.000000
vt 0.000000 1.000000
vt 0.000000 0.000000
vt 1.000000 0.000000
vt 0.000000 0.000000
vt 1.000000 0.000000
vt 0.000000 0.000000
vt 1.000000 0.000000
vt 0.000000 0.000000
vt 1.000000 0.000000
vt 0.000000 0.000000
vt 1.000000 0.000000
vt 0.000000 0.000000
vt 1.000000 0.000000
vt 0.000000 0.000000
vt 1.000000 0.000000
vt 1.000000 1.000000
vt 0.000000 1.000000
vt 0.000000 0.000000
vt 1.000000 0.000000
vt 1.000000 1.000000
vt 0.000000 1.000000
vt 1.000000 1.000000
vt 0.000000 1.000000
vt 1.000000 1.000000
vt 0.000000 1.000000
vt 0.000000 0.000000
vt 1.000000 0.000000
vt 0.000000 0.000000
vt 1.000000 0.000000
vt 0.000000 0.000000
vt 1.000000 0.000000
vt 0.000000 0.000000
vt 1.000000 0.000000
vt 0.000000 0.000000
vt 1.000000 0.000000
vt 0.000000 0.000000
vt 1.000000 0.000000
vt 0.000000 0.000000
vt 1.000000 0.000000
vt 1.000000 1.000000
vt 0.000000 1.000000
vn -1.0000 0.0000 0.0000
vn 0.0000 0.0000 -1.0000
vn 1.0000 0.0000 0.0000
vn 0.0000 0.0000 1.0000
vn 0.0000 -1.0000 0.0000
vn 0.0000 1.0000 0.0000
vn -0.9829 0.0000 0.1842
vn -0.1842 0.0000 -0.9829
vn 0.9829 0.0000 -0.1842
vn 0.1842 0.0000 0.9829
vn -0.5719 0.0000 0.8203
vn -0.8203 0.0000 -0.5719
vn 0.5719 0.0000 -0.8203
vn 0.8203 0.0000 0.5719
vn -0.9829 0.0000 -0.1842
vn 0.1842 0.0000 -0.9829
vn 0.9829 0.0000 0.1842
vn -0.1842 0.0000 0.9829
vn -0.5719 0.0000 -0.8203
vn 0.8203 0.0000 -0.5719
vn 0.5719 0.0000 0.8203
vn -0.8203 0.0000 0.5719
vn -0.7660 0.0000 -0.6428
vn 0.6428 0.0000 -0.7660
vn 0.7660 0.0000 0.6428
vn -0.6428 0.0000 0.7660
vn -0.7660 0.0000 0.6428
vn -0.6428 0.0000 -0.7660
vn 0.7660 0.0000 -0.6428
vn 0.6428 0.0000 0.7660
vn 0.0000 0.9239 0.3827
vn 0.0000 0.7071 0.7071
vn 0.0000 0.5696 0.8219
vn 0.0000 0.2117 0.9773
vn 0.0000 -0.3827 0.9239
vn 0.0000 -0.9239 0.3827
vn 0.0000 -0.9732 -0.2297
vn 0.0000 -0.8653 0.5012
vn 0.0000 -0.0570 0.9984
usemtl None
s off
f 1/1/1 2/2/1 4/3/1 3/4/1
f 3/4/2 4/3/2 8/5/2 7/6/2
f 7/6/3 8/5/3 6/7/3 5/8/3
f 5/8/4 6/7/4 2/9/4 1/10/4
f 3/11/5 7/6/5 5/8/5 1/12/5
f 8/5/6 4/13/6 2/14/6 6/7/6
f 33/15/1 34/16/1 36/17/1 35/18/1
f 35/18/2 36/17/2 40/19/2 39/20/2
f 39/20/3 40/19/3 38/21/3 37/22/3
f 37/22/4 38/21/4 34/23/4 33/24/4
f 35/25/5 39/20/5 37/22/5 33/26/5
f 40/19/6 36/27/6 34/28/6 38/21/6
f 41/29/1 42/30/1 44/31/1 43/32/1
f 43/32/2 44/31/2 48/33/2 47/34/2
f 47/34/3 48/33/3 46/35/3 45/36/3
f 45/36/4 46/35/4 42/37/4 41/38/4
f 43/39/5 47/34/5 45/36/5 41/40/5
f 48/33/6 44/41/6 42/42/6 46/35/6
f 49/43/1 50/44/1 52/45/1 51/46/1
f 51/46/2 52/45/2 56/47/2 55/48/2
f 55/48/3 56/47/3 54/49/3 53/50/3
f 53/50/4 54/49/4 50/51/4 49/52/4
f 51/53/5 55/48/5 53/50/5 49/54/5
f 56/47/6 52/55/6 50/56/6 54/49/6
f 57/57/1 58/58/1 60/59/1 59/60/1
f 59/60/2 60/59/2 64/61/2 63/62/2
f 63/62/3 64/61/3 62/63/3 61/64/3
f 61/64/4 62/63/4 58/65/4 57/66/4
f 59/67/5 63/62/5 61/64/5 57/68/5
f 64/61/6 60/69/6 58/70/6 62/63/6
f 65/71/1 66/72/1 68/73/1 67/74/1
f 67/74/2 68/73/2 72/75/2 71/76/2
f 71/76/3 72/75/3 70/77/3 69/78/3
f 69/78/4 70/77/4 66/79/4 65/80/4
f 67/81/5 71/76/5 69/78/5 65/82/5
f 72/75/6 68/83/6 66/84/6 70/77/6
f 73/85/1 74/86/1 76/87/1 75/88/1
f 75/88/2 76/87/2 80/89/2 79/90/2
f 79/90/3 80/89/3 78/91/3 77/92/3
f 77/92/4 78/91/4 74/93/4 73/94/4
f 75/95/5 79/90/5 77/92/5 73/96/5
f 80/89/6 76/97/6 74/98/6 78/91/6
f 81/99/7 82/100/7 84/101/7 83/102/7
f 83/102/8 84/101/8 88/103/8 87/104/8
f 87/104/9 88/103/9 86/105/9 85/106/9
f 85/106/10 86/105/10 82/107/10 81/108/10
f 83/109/5 87/104/5 85/106/5 81/110/5
f 88/103/6 84/111/6 82/112/6 86/105/6
f 89/113/11 90/114/11 92/115/11 91/116/11
f 91/116/12 92/115/12 96/117/12 95/118/12
f 95/118/13 96/117/13 94/119/13 93/120/13
f 93/120/14 94/119/14 90/121/14 89/122/14
f 91/123/5 95/118/5 93/120/5 89/124/5
f 96/117/6 92/125/6 90/126/6 94/119/6
f 97/127/15 98/128/15 100/129/15 99/130/15
f 99/130/16 100/129/16 104/131/16 103/132/16
f 103/132/17 104/131/17 102/133/17 101/134/17
f 101/134/18 102/133/18 98/135/18 97/136/18
f 99/137/5 103/132/5 101/134/5 97/138/5
f 104/131/6 100/139/6 98/140/6 102/133/6
f 105/141/19 106/142/19 108/143/19 107/144/19
f 107/144/20 108/143/20 112/145/20 111/146/20
f 111/146/21 112/145/21 110/147/21 109/148/21
f 109/148/22 110/147/22 106/149/22 105/150/22
f 107/151/5 111/146/5 109/148/5 105/152/5
f 112/145/6 108/153/6 106/154/6 110/147/6
f 113/155/23 114/156/23 116/157/23 115/158/23
f 115/158/24 116/157/24 120/159/24 119/160/24
f 119/160/25 120/159/25 118/161/25 117/162/25
f 117/162/26 118/161/26 114/163/26 113/164/26
f 115/165/5 119/160/5 117/162/5 113/166/5
f 120/159/6 116/167/6 114/168/6 118/161/6
f 121/169/27 122/170/27 124/171/27 123/172/27
f 123/172/28 124/171/28 128/173/28 127/174/28
f 127/174/29 128/173/29 126/175/29 125/176/29
f 125/176/30 126/175/30 122/177/30 121/178/30
f 123/179/5 127/174/5 125/176/5 121/180/5
f 128/173/6 124/181/6 122/182/6 126/175/6
f 129/183/1 130/184/1 132/185/1 131/186/1
f 131/186/2 132/185/2 136/187/2 135/188/2
f 135/188/3 136/187/3 134/189/3 133/190/3
f 133/190/4 134/189/4 130/191/4 129/192/4
f 131/193/5 135/188/5 133/190/5 129/194/5
f 136/187/6 132/195/6 130/196/6 134/189/6
s 1
f 9/197/31 10/198/31 12/199/32 11/200/32
f 11/200/32 12/199/32 14/201/32 13/202/32
f 13/202/32 14/201/32 16/203/6 15/204/6
f 10/198/31 9/197/31 17/205/33 18/206/33
f 18/206/33 17/205/33 19/207/34 20/208/34
f 20/208/34 19/207/34 21/209/35 22/210/35
f 22/210/35 21/209/35 23/211/36 24/212/36
f 24/212/36 23/211/36 25/213/37 26/214/37
f 26/214/37 25/213/37 27/215/38 28/216/38
f 28/216/38 27/215/38 29/217/39 30/218/39
f 15/204/6 16/203/6 32/219/6 31/220/6
f 137/221/31 138/222/31 140/223/32 139/224/32
f 139/224/32 140/223/32 142/225/32 141/226/32
f 141/226/32 142/225/32 144/227/6 143/228/6
f 138/222/31 137/221/31 145/229/33 146/230/33
f 146/230/33 145/229/33 147/231/34 148/232/34
f 148/232/34 147/231/34 149/233/35 150/234/35
f 150/234/35 149/233/35 151/235/36 152/236/36
f 152/236/36 151/235/36 153/237/37 154/238/37
f 154/238/37 153/237/37 155/239/38 156/240/38
f 156/240/38 155/239/38 157/241/39 158/242/39
f 143/228/6 144/227/6 160/243/6 159/244/6
